<svg xmlns="http://www.w3.org/2000/svg" width="16" height="16" viewBox="0 0 16 16" fill="none">
  <mask id="mask0_335_453" style="mask-type:alpha" maskUnits="userSpaceOnUse" x="0" y="0" width="16" height="16">
    <rect width="16" height="16" fill="#D9D9D9"/>
  </mask>
  <g mask="url(#mask0_335_453)">
    <path d="M5.25002 4.4975L7.05252 2.132C7.17219 1.97189 7.3143 1.85434 7.47885 1.77934C7.64341 1.70423 7.81713 1.66667 8.00002 1.66667C8.18291 1.66667 8.35663 1.70423 8.52119 1.77934C8.68574 1.85434 8.82785 1.97189 8.94752 2.132L10.75 4.4975L13.5064 5.42817C13.7697 5.51284 13.975 5.66212 14.1224 5.87601C14.2698 6.09001 14.3435 6.32634 14.3435 6.585C14.3435 6.70445 14.3261 6.82351 14.2912 6.94217C14.2563 7.06084 14.199 7.17456 14.1192 7.28334L12.3244 9.77434L12.391 12.418C12.4021 12.769 12.2864 13.0648 12.0439 13.3055C11.8014 13.5463 11.5189 13.6667 11.1962 13.6667C11.1867 13.6667 11.0752 13.6521 10.8615 13.623L8.00002 12.8025L5.13852 13.623C5.08296 13.6452 5.02563 13.6581 4.96652 13.6615C4.90741 13.665 4.85319 13.6667 4.80385 13.6667C4.47819 13.6667 4.19485 13.5463 3.95385 13.3055C3.71285 13.0648 3.59791 12.769 3.60902 12.418L3.67569 9.75767L1.89102 7.28334C1.81124 7.17412 1.75391 7.05995 1.71902 6.94084C1.68413 6.82162 1.66669 6.70245 1.66669 6.58334C1.66669 6.33189 1.73991 6.09806 1.88635 5.88184C2.0328 5.66562 2.23735 5.51228 2.50002 5.42184L5.25002 4.4975ZM5.86802 5.359L2.82052 6.37434C2.75641 6.39567 2.71263 6.43951 2.68919 6.50584C2.66563 6.57206 2.67524 6.63295 2.71802 6.68851L4.68202 9.46034L4.60902 12.4385C4.60469 12.5112 4.6303 12.5688 4.68585 12.6115C4.74141 12.6543 4.80341 12.665 4.87185 12.6437L8.00002 11.7653L11.1282 12.6603C11.1966 12.6817 11.2586 12.671 11.3142 12.6282C11.3697 12.5855 11.3954 12.5278 11.391 12.4552L11.318 9.46034L13.282 6.72184C13.3248 6.66628 13.3344 6.60539 13.3109 6.53917C13.2874 6.47284 13.2436 6.42901 13.1795 6.40767L10.132 5.359L8.16035 2.75651C8.1218 2.70084 8.06835 2.67301 8.00002 2.67301C7.93169 2.67301 7.87824 2.70084 7.83969 2.75651L5.86802 5.359Z" fill="#0B1F2F"/>
  </g>
</svg>
